[center][img]http://img25.imageshack.us/img25/8282/c5pvp7te.jpg[/img]

[img]http://leetleech.org/images/48874973695367351744.png[/img]

Format                           : AVI
Format/Info                      : Audio Video Interleave
Format profile                   : OpenDML
File size                        : 2.06 GiB
Duration                         : 1h 31mn
Overall bit rate                 : 3 225 Kbps
Writing application              : VirtualDubMod 1.5.10.3 | www.virtualdub-fr.org || (build 2550/release)
Writing library                  : VirtualDubMod build 2550/release

Video
ID                               : 0
Format                           : MPEG-4 Visual
Format profile                   : Advanced Simple@L5
Format settings, BVOP            : Yes
Format settings, QPel            : No
Format settings, GMC             : No warppoints
Format settings, Matrix          : Custom
Codec ID                         : XVID
Codec ID/Hint                    : XviD
Duration                         : 1h 31mn
Bit rate                         : 2 764 Kbps
Width                            : 1 280 pixels
Height                           : 544 pixels
Display aspect ratio             : 2.35:1
Frame rate                       : 23.976 fps
Color space                      : YUV
Chroma subsampling               : 4:2:0
Bit depth                        : 8 bits
Scan type                        : Progressive
Bits/(Pixel*Frame)               : 0.166
Stream size                      : 1.76 GiB (86%)
Writing library                  : XviD 1.2.1 (UTC 2008-12-04)

Audio
ID                               : 1
Format                           : AC-3
Format/Info                      : Audio Coding 3
Mode extension                   : CM (complete main)
Codec ID                         : 2000
Duration                         : 1h 31mn
Bit rate mode                    : Constant
Bit rate                         : 448 Kbps
Channel(s)                       : 6 channels
Channel positions                : Front: L C R, Side: L R, LFE
Sampling rate                    : 48.0 KHz
Bit depth                        : 16 bits
Stream size                      : 293 MiB (14%)
Alignment                        : Split accross interleaves
Interleave, duration             : 42 ms (1.00 video frame)
Interleave, preload duration     : 500 ms

[url]http://www.imdb.com/title/tt1334102/[/url]

When a young doctor suspects she may not be alone in her new Brooklyn loft, she learns that her landlord has formed a frightening obsession with her.
Director:
Antti Jokinen
Writers:
Antti Jokinen, Robert Orr
Stars:
Jeffrey Dean Morgan, Hilary Swank and Christopher Lee 


[img]http://leetleech.org/images/95521316153253938506.png[/img]


[img]http://img97.imageshack.us/img97/503/vlcsnap2011020611h22m10.png[/img]
[img]http://img202.imageshack.us/img202/7886/vlcsnap2011020611h22m56.png[/img]
[img]http://img152.imageshack.us/img152/264/vlcsnap2011020611h24m01.png[/img]


Greetz to Imagine ,Flawl3ss ,Santi ,Vision ,Kingdom,BDK,DiGiTALiNK,LEGION,Classified,iLLUSiON ,THC,WBZ,Rx ,Feel Free and to all who share



[img]http://img411.imageshack.us/img411/6898/sig1n.jpg[/img]

[img]http://www.leetleech.org/images/87870089910142070221.png[/img][/center]